<svg id="Capa_1" fill="#24415c" enable-background="new 0 0 511.874 511.874" height="512" viewBox="0 0 511.874 511.874" width="512" xmlns="http://www.w3.org/2000/svg"><g><g id="Layer_2_00000067945922984431288450000009616740433021039027_"><g id="Layer_1-2_00000042017850212135050120000012841222368951372970_"><path id="green_energy" d="m507.492 457.481c-22.177-9.997-45.169-18.081-68.723-24.162v-49.276c24.139-2.279 44.757-18.368 52.834-41.229 32.254-113.329-50.409-251.206-53.99-257.19-2.323-3.655-7.17-4.735-10.826-2.411-.971.617-1.794 1.44-2.411 2.411-3.468 5.984-86.13 143.906-53.877 257.19 8.079 22.813 28.633 38.886 52.721 41.229v45.128c-32.198-7.563-64.899-12.797-97.849-15.662v-213.218c26.68-3.91 46.47-26.776 46.51-53.741v-45.037c0-9.86-13.01-7.366-19.357-7.616v-46.057c.232-4.287-3.056-7.951-7.344-8.183-4.287-.232-7.951 3.056-8.183 7.344-.015.279-.015.56 0 .839v46.057h-38.804v-46.057c.231-4.262-3.037-7.905-7.299-8.136s-7.905 3.037-8.136 7.299c-.015.279-.015.558 0 .837v46.057c-6.346.272-19.334-2.267-19.334 7.616v45.037c.086 26.931 19.864 49.745 46.51 53.65v212.062c-28.13-1.949-56.343-2.403-84.521-1.36v-19.357c115.868-60.087 26.179-201.047-1.836-231.646-3.042-3.273-8.162-3.461-11.436-.418-.145.134-.284.274-.418.418-11.111 13.785-21.079 28.453-29.806 43.859-13.591-46.037-38.532-87.922-72.531-121.807-2.98-2.986-7.817-2.99-10.802-.009-.003.003-.006.006-.009.009-44.764 41.752-143.383 185.68-2.265 260.183v85.473c-31.493 6.912-62.226 16.919-91.752 29.874-3.854 1.753-5.597 6.266-3.921 10.154 1.8 3.933 6.437 5.674 10.381 3.899 135.043-61.017 354.925-61.017 489.991 0 3.902 1.731 8.468-.029 10.199-3.931 1.702-3.836.032-8.329-3.762-10.122zm-114.894-105.918c-42.612-82.141 20.263-211.042 38.532-245.925 18.994 35.472 70.808 144.404 45.604 232.824-6.013 16.297-20.65 27.852-37.897 29.919v-126.929c-.024-4.265-3.442-7.734-7.706-7.82-4.292.072-7.758 3.528-7.842 7.82v126.929c-11.944-1.664-22.862-7.648-30.691-16.818zm-113.783-205.013v-37.217h77.517v37.217c0 21.406-17.353 38.759-38.759 38.759s-38.758-17.353-38.758-38.759zm-61.198 30.939c31.596 39.507 90.142 148.688 7.706 196.196v-141.005c0-4.256-3.45-7.706-7.706-7.706s-7.706 3.45-7.706 7.706v140.937c-28.64-16.087-45.251-47.413-42.499-80.147 12.276-18.531 18.515-40.407 17.861-62.626 9.044-18.782 19.876-36.649 32.344-53.355zm-178.584 70.468c-9.225-62.875 46.85-129.626 64.938-149.21 46.488 48.278 116.253 163.693 7.706 225.186v-55.237c10.404-1.269 41.32-8.704 33.274-23.505-2.548-3.393-7.365-4.078-10.758-1.53-.064.048-.127.097-.189.147-6.465 5.084-14.174 8.34-22.326 9.429v-48.573c7.433-1.136 14.453-4.147 20.399-8.749 7.888-6.142-1.813-18.677-9.678-12.217-3.128 2.494-6.789 4.231-10.698 5.077v-41.455c-.003-4.256-3.456-7.704-7.712-7.701-4.252.003-7.698 3.449-7.701 7.701v41.456c-7.865-.748-14.665-11.832-21.669-3.921-2.623 3.406-2.114 8.271 1.156 11.061 5.944 4.606 12.965 7.617 20.399 8.749v48.573c-8.166-1.037-15.889-4.299-22.326-9.429-3.307-2.659-8.144-2.133-10.803 1.174-.049.061-.097.123-.145.186-8.182 14.846 22.666 22.235 33.274 23.527v55.237c-29.759-15.141-50.851-43.185-57.141-75.976zm72.644 94.177c15.003-8.03 28.774-18.174 40.889-30.123.177 3.05.593 6.082 1.247 9.066 6.856 30.954 27.58 57.029 56.189 70.695v20.263c-33.035 1.741-65.898 5.9-98.325 12.444z"/></g></g></g></svg>