<svg id="Layer_3" fill="#24415c" height="512" viewBox="0 0 64 64" width="512" xmlns="http://www.w3.org/2000/svg" data-name="Layer 3"><path d="m56 1h-48a7.008 7.008 0 0 0 -7 7v19a4 4 0 0 0 4 4h3.22l.81 3.242a1 1 0 0 0 .97.758h44a1 1 0 0 0 .97-.758l.81-3.242h3.22a4 4 0 0 0 4-4v-19a7.008 7.008 0 0 0 -7-7zm0 24h-48a1 1 0 0 1 0-2h48a1 1 0 0 1 0 2zm-2.781 8h-42.438l-1.5-6h45.438zm5.781-4h-2.72l.532-2.126a2.992 2.992 0 0 0 -.812-5.874h-48a2.992 2.992 0 0 0 -.812 5.874l.532 2.126h-2.72a2 2 0 0 1 -2-2v-8h58v8a2 2 0 0 1 -2 2zm2-12h-58v-9a5.006 5.006 0 0 1 5-5h48a5.006 5.006 0 0 1 5 5z"/><path d="m56 9a3 3 0 1 0 3 3 3 3 0 0 0 -3-3zm0 4a1 1 0 1 1 1-1 1 1 0 0 1 -1 1z"/><path d="m48 9a3 3 0 1 0 3 3 3 3 0 0 0 -3-3zm0 4a1 1 0 1 1 1-1 1 1 0 0 1 -1 1z"/><path d="m31 37h2v6h-2z"/><path d="m11 37h2v6h-2z"/><path d="m21 37h2v6h-2z"/><path d="m41 37h2v6h-2z"/><path d="m51 37h2v6h-2z"/><path d="m26.074 51.383a1 1 0 0 0 .926.617h2v4h-2a1 1 0 0 0 -.707 1.707l5 5a1 1 0 0 0 1.414 0l5-5a1 1 0 0 0 -.707-1.707h-2v-4h2a1 1 0 0 0 .707-1.707l-5-5a1 1 0 0 0 -1.414 0l-5 5a1 1 0 0 0 -.219 1.09zm5.926-3.969 2.585 2.586h-.585a1 1 0 0 0 -1 1v6a1 1 0 0 0 1 1h.586l-2.586 2.586-2.586-2.586h.586a1 1 0 0 0 1-1v-6a1 1 0 0 0 -1-1h-.587z"/><path d="m17 45a1 1 0 0 0 -.707.293l-5 5a1 1 0 0 0 .707 1.707h2v4h-2a1 1 0 0 0 -.707 1.707l5 5a1 1 0 0 0 1.414 0l5-5a1 1 0 0 0 -.707-1.707h-2v-4h2a1 1 0 0 0 .707-1.707l-5-5a1 1 0 0 0 -.707-.293zm2 13h.586l-2.586 2.586-2.586-2.586h.586a1 1 0 0 0 1-1v-6a1 1 0 0 0 -1-1h-.587l2.587-2.586 2.585 2.586h-.585a1 1 0 0 0 -1 1v6a1 1 0 0 0 1 1z"/><path d="m47 45a1 1 0 0 0 -.707.293l-5 5a1 1 0 0 0 .707 1.707h2v4h-2a1 1 0 0 0 -.707 1.707l5 5a1 1 0 0 0 1.414 0l5-5a1 1 0 0 0 -.707-1.707h-2v-4h2a1 1 0 0 0 .707-1.707l-5-5a1 1 0 0 0 -.707-.293zm2 13h.586l-2.586 2.586-2.586-2.586h.586a1 1 0 0 0 1-1v-6a1 1 0 0 0 -1-1h-.587l2.587-2.586 2.585 2.586h-.585a1 1 0 0 0 -1 1v6a1 1 0 0 0 1 1z"/></svg>