<svg height="512" fill="#24415c" viewBox="0 0 512 512" width="512" xmlns="http://www.w3.org/2000/svg"><g id="Outline"><path d="m216 208a8 8 0 0 0 8 8h64a8 8 0 0 0 8-8v-56a72.081 72.081 0 0 0 -72-72h-120v-16.76l72.8-7.28a8 8 0 0 0 7.2-7.96v-24a8 8 0 0 0 -8-8h-152a8 8 0 0 0 -8 8v88h16v-16h192a56.063 56.063 0 0 1 56 56v16h-48v-16a8 8 0 0 0 -8-8h-128a8 8 0 0 0 -8 8v328h-56v-352h-16v360a8 8 0 0 0 8 8h72a8 8 0 0 0 8-8v-328h112zm-120.8-159.96a8 8 0 0 0 -7.2 7.96v24h-56v-48h136v8.76zm136.8 135.96h48v16h-48z"/><path d="m495.9 447.481-40 .52a8 8 0 0 0 -2.867.571l-32 12.8 5.942 14.856 30.62-12.248 38.513-.5z"/><path d="m374.459 480h-157.337a16.03 16.03 0 0 1 -10.673-4.079l-65.538-57.341a15.334 15.334 0 0 1 20-23.22q.12.1.246.189l58.09 42.887a8 8 0 0 0 4.753 1.564h120v-16h-96a16 16 0 0 1 0-32h72a8 8 0 0 0 5.747-2.435c20.871-21.552 38.827-29.565 66.253-29.565 37.118 0 52.523 6.688 52.612 6.728a7.994 7.994 0 0 0 3.388.752h48v-16h-46.463c-5.475-2.042-23.265-7.48-57.537-7.48-14.775 0-27.376 2.072-39.03 6.741l-6.2-16.011-14.921 5.776 6.8 17.566a127.616 127.616 0 0 0 -22 17.928h-23.529l-2.309-25.221-15.934 1.459 2.176 23.762h-29.053a32.011 32.011 0 0 0 -30.674 41.129l-46.548-34.366a31.334 31.334 0 0 0 -40.617 47.669c.045.041.091.083.138.123l65.569 57.367a31.971 31.971 0 0 0 21.254 8.078h158.878a8 8 0 0 0 2.971-.572l32-12.8-5.942-14.856z"/><path d="m265.084 231.951h16v24h-16z" transform="matrix(.996 -.09 .09 .996 -20.929 25.678)"/><path d="m268.699 271.787h16v24.001h-16z" transform="matrix(.996 -.09 .09 .996 -24.509 26.161)"/><path d="m272.314 311.624h16v24h-16z" transform="matrix(.996 -.09 .09 .996 -28.094 26.651)"/><path d="m228.259 235.951h24v16h-24z" transform="matrix(.09 -.996 .996 .09 -24.398 461.19)"/><path d="m224.644 275.787h24.001v16h-24.001z" transform="matrix(.09 -.996 .996 .09 -67.359 493.829)"/><path d="m221.03 315.624h24v16h-24z" transform="matrix(.09 -.996 .996 .09 -110.321 526.467)"/><path d="m217.414 355.46h24.001v16h-24.001z" transform="matrix(.09 -.996 .996 .09 -153.283 559.104)"/><path d="m199.669 228.898h24v16h-24z" transform="matrix(.361 -.933 .933 .361 -85.662 348.786)"/><path d="m185.232 266.201h24v16.001h-24z" transform="matrix(.361 -.933 .933 .361 -129.676 359.164)"/><path d="m170.794 303.505h24v16h-24z" transform="matrix(.361 -.933 .933 .361 -173.691 369.535)"/><path d="m156.357 340.809h24v16h-24z" transform="matrix(.361 -.933 .933 .361 -217.706 379.909)"/><path d="m292.331 224.898h16v24h-16z" transform="matrix(.933 -.361 .361 .933 -65.263 124.379)"/><path d="m306.768 262.202h16.001v24h-16.001z" transform="matrix(.933 -.361 .361 .933 -77.753 132.101)"/><path d="m321.206 299.506h16v24h-16z" transform="matrix(.933 -.361 .361 .933 -90.246 139.831)"/><path d="m48 144h16v16h-16z"/><path d="m48 176h16v96h-16z"/></g></svg>