<svg height="512" fill="#24415c" viewBox="0 0 64 64" width="512" xmlns="http://www.w3.org/2000/svg"><g id="ad"><g><path d="m30 63c9.374 0 17-7.626 17-17 0-5.45-2.607-10.55-7-13.749v-21.251c0-5.514-4.486-10-10-10s-10 4.486-10 10v21.251c-4.393 3.199-7 8.299-7 13.749 0 9.374 7.626 17 17 17zm-8.437-29.404c.273-.186.437-.496.437-.826v-21.77c0-4.411 3.589-8 8-8s8 3.589 8 8v21.77c0 .331.164.64.437.826 4.109 2.801 6.563 7.438 6.563 12.404 0 8.271-6.729 15-15 15s-15-6.729-15-15c0-4.966 2.454-9.603 6.563-12.404z"/><path d="m30 59c2.53 0 4.982-.728 7.093-2.104.462-.302.593-.921.291-1.384-.301-.462-.921-.593-1.384-.291-1.784 1.164-3.859 1.779-6 1.779-6.065 0-11-4.935-11-11 0-4.287 2.519-8.214 6.382-9.988q.617-.256.618-4.688v-18.324h8v9.163c0 .552.448 1 1 1s1-.448 1-1v-11.163c0-3.309-2.691-6-6-6s-6 2.691-6 6v23.465c-4.272 2.227-7 6.686-7 11.535 0 7.168 5.832 13 13 13zm0-52c2.206 0 4 1.794 4 4h-8c0-2.206 1.794-4 4-4z"/><path d="m36 26.174c0-.552-.448-1-1-1s-1 .448-1 1v8.915c0 .391.228.746.583.909 3.898 1.789 6.417 5.715 6.417 10.002 0 2.427-.774 4.727-2.238 6.652-.334.439-.249 1.067.19 1.401.181.138.394.204.604.204.302 0 .6-.136.797-.395 1.731-2.276 2.646-4.995 2.646-7.863 0-4.85-2.727-9.308-7-11.535v-8.292z"/><path d="m42 21h8c.552 0 1-.448 1-1s-.448-1-1-1h-8c-.552 0-1 .448-1 1s.448 1 1 1z"/><path d="m42 26h6c.552 0 1-.448 1-1s-.448-1-1-1h-6c-.552 0-1 .448-1 1s.448 1 1 1z"/><path d="m42 31h8c.552 0 1-.448 1-1s-.448-1-1-1h-8c-.552 0-1 .448-1 1s.448 1 1 1z"/><path d="m42 16h6c.552 0 1-.448 1-1s-.448-1-1-1h-6c-.552 0-1 .448-1 1s.448 1 1 1z"/><path d="m42 11h8c.552 0 1-.448 1-1s-.448-1-1-1h-8c-.552 0-1 .448-1 1s.448 1 1 1z"/><path d="m21.958 51.36c.717 1.046 1.693 1.894 2.9 2.52 1.992 1.033 4.057 1.124 4.709 1.124.127 0 .201-.003.209-.004.095 0 2.313-.013 4.549-1.101 2.132-1.037 4.674-3.25 4.674-7.899 0-2.216-1.088-4.366-1.135-4.456-.19-.37-.591-.585-1.001-.538-.413.046-.754.343-.857.746-.441 1.723-1.547 2.532-2.486 2.911 2.054-7.241-2.902-10.826-3.987-11.509-.384-.241-.881-.195-1.213.113s-.416.8-.205 1.2c1.419 2.687.818 4.763.333 5.762-.406.838-.934 1.371-1.286 1.62-1.336-.938-3.56-1.701-3.844-1.796-.435-.146-.918.024-1.165.415-.246.391-.193.899.129 1.23 1.147 1.182.723 1.745.102 2.568-1.682 2.236-1.849 5.021-.426 7.095zm2.057-5.936c.368-.488 1.032-1.369.994-2.519.552.272 1.033.557 1.292.81.225.219.537.321.85.272 1.065-.163 2.291-1.284 3.048-2.789.4-.795.864-2.089.8-3.736 1.032 1.762 1.601 4.416.075 8.158-.126.308-.09.659.096.935s.497.442.83.442h.001c1.224 0 3.405-.556 4.829-2.411.101.45.17.934.17 1.412 0 6.886-6.93 6.999-7.271 7.001-.021.003-2.063.082-3.95-.896-.912-.473-1.642-1.104-2.171-1.875-.929-1.354-.782-3.224.408-4.805z"/></g></g><g id="ae"><text font-family="MyriadPro-Regular, Myriad Pro" font-size="10" transform="translate(25.435 72.319)"><tspan x="0" y="0">H</tspan><tspan letter-spacing="-.025em" x="6.52" y="0">O</tspan><tspan x="13.16" y="0">T</tspan></text></g></svg>